<?xml version="1.0" encoding="UTF-8"?>
<svg id="Layer_1" data-name="Layer 1" xmlns="http://www.w3.org/2000/svg" viewBox="0 0 353.65 39.88">
  <defs>
    <style>
      .cls-1 {
        fill: #fff;
      }

      .cls-2 {
        fill: #ed1c24;
      }
    </style>
  </defs>
  <g>
    <path class="cls-1" d="M20.74,7.08c-.82-1.14-1.88-2.06-3.16-2.76s-2.84-1.05-4.66-1.05c-.93,0-1.88,.14-2.84,.43-.96,.29-1.84,.72-2.63,1.31-.79,.59-1.42,1.33-1.9,2.22-.48,.89-.72,1.95-.72,3.16s.23,2.22,.69,3c.46,.79,1.08,1.46,1.84,2.01,.77,.55,1.64,1.01,2.62,1.37,.98,.36,2,.72,3.07,1.07,1.32,.43,2.64,.89,3.98,1.39,1.34,.5,2.54,1.15,3.61,1.96,1.07,.8,1.94,1.82,2.62,3.06s1.02,2.8,1.02,4.69-.36,3.53-1.08,4.9c-.72,1.38-1.66,2.51-2.81,3.4-1.15,.89-2.47,1.55-3.95,1.98-1.48,.43-2.97,.64-4.48,.64-1.14,0-2.29-.12-3.43-.35-1.14-.23-2.23-.58-3.27-1.04-1.04-.46-2-1.05-2.89-1.77-.89-.71-1.68-1.54-2.36-2.47l3.32-2.47c.82,1.36,1.97,2.49,3.46,3.4,1.48,.91,3.22,1.37,5.23,1.37,.96,0,1.95-.15,2.95-.46,1-.3,1.9-.77,2.71-1.39,.8-.62,1.46-1.39,1.98-2.3,.52-.91,.78-1.97,.78-3.19,0-1.32-.26-2.42-.78-3.3-.52-.88-1.21-1.61-2.06-2.2-.86-.59-1.84-1.08-2.95-1.47-1.11-.39-2.27-.79-3.48-1.18-1.25-.39-2.48-.84-3.7-1.34-1.22-.5-2.3-1.15-3.27-1.96-.96-.8-1.74-1.8-2.33-2.98-.59-1.18-.88-2.63-.88-4.34,0-1.82,.37-3.39,1.1-4.72,.73-1.32,1.69-2.41,2.87-3.27,1.18-.86,2.48-1.48,3.91-1.88,1.43-.39,2.84-.59,4.23-.59,2.57,0,4.77,.46,6.59,1.37,1.82,.91,3.2,1.99,4.13,3.24l-3.06,2.47Z"/>
    <path class="cls-1" d="M36.34,.96h10.72c1.93,0,3.68,.21,5.25,.62,1.57,.41,2.92,1.04,4.05,1.88,1.13,.84,1.99,1.89,2.6,3.16,.61,1.27,.91,2.76,.91,4.48s-.31,3.21-.94,4.48c-.63,1.27-1.5,2.32-2.63,3.16-1.13,.84-2.48,1.47-4.07,1.9-1.59,.43-3.35,.64-5.28,.64h-6.75v17.63h-3.86V.96Zm3.86,17.04h6.54c3.04,0,5.34-.59,6.91-1.77,1.57-1.18,2.36-2.89,2.36-5.15s-.81-4.08-2.44-5.17c-1.63-1.09-3.9-1.63-6.83-1.63h-6.54v13.72Z"/>
    <path class="cls-1" d="M67.7,38.91h-4.23L79.86,.96h3.75l16.29,37.95h-4.29l-4.18-9.97h-19.62l-4.13,9.97Zm5.57-13.51h16.72l-8.36-20.15-8.36,20.15Z"/>
    <path class="cls-1" d="M140.22,32.75c-.64,.96-1.42,1.88-2.33,2.74-.91,.86-1.97,1.62-3.16,2.27-1.2,.65-2.52,1.17-3.97,1.55-1.45,.38-3.03,.57-4.74,.57-2.86,0-5.5-.5-7.93-1.5s-4.52-2.39-6.27-4.15c-1.75-1.77-3.12-3.87-4.1-6.3-.98-2.43-1.47-5.09-1.47-7.99s.5-5.56,1.5-7.99c1-2.43,2.39-4.53,4.15-6.3,1.77-1.77,3.86-3.15,6.27-4.15,2.41-1,5.03-1.5,7.85-1.5,1.39,0,2.76,.15,4.1,.44,1.34,.29,2.6,.7,3.78,1.23,1.18,.53,2.25,1.16,3.22,1.9,.96,.74,1.77,1.57,2.41,2.5l-3.22,2.36c-.39-.61-.92-1.21-1.58-1.82-.66-.61-1.44-1.14-2.33-1.61-.89-.46-1.87-.84-2.92-1.13-1.05-.29-2.19-.43-3.4-.43-2.47,0-4.67,.45-6.62,1.34-1.95,.89-3.6,2.09-4.96,3.61-1.36,1.51-2.39,3.27-3.11,5.26-.72,2-1.07,4.1-1.07,6.3s.37,4.31,1.1,6.3c.73,1.99,1.78,3.75,3.14,5.26,1.36,1.51,3.01,2.72,4.96,3.61,1.95,.89,4.14,1.34,6.57,1.34,2.18,0,4.25-.45,6.22-1.34,1.96-.89,3.61-2.32,4.93-4.29l3,1.93Z"/>
    <path class="cls-1" d="M154.47,35.48h20.31v3.43h-24.17V.96h23.53v3.43h-19.67v13.02h18.38v3.43h-18.38v14.63Z"/>
    <path class="cls-1" d="M203.25,.96h10.72c1.93,0,3.68,.21,5.25,.62,1.57,.41,2.92,1.04,4.05,1.88,1.13,.84,1.99,1.89,2.6,3.16,.61,1.27,.91,2.76,.91,4.48s-.31,3.21-.94,4.48c-.63,1.27-1.5,2.32-2.63,3.16-1.12,.84-2.48,1.47-4.07,1.9-1.59,.43-3.35,.64-5.28,.64h-6.75v17.63h-3.86V.96Zm3.86,17.04h6.54c3.04,0,5.34-.59,6.92-1.77,1.57-1.18,2.36-2.89,2.36-5.15s-.81-4.08-2.44-5.17c-1.63-1.09-3.9-1.63-6.83-1.63h-6.54v13.72Z"/>
    <path class="cls-1" d="M275.61,19.94c0,2.89-.5,5.56-1.5,7.99-1,2.43-2.39,4.53-4.15,6.3-1.77,1.77-3.86,3.15-6.27,4.15-2.41,1-5.03,1.5-7.85,1.5s-5.44-.5-7.85-1.5-4.5-2.39-6.27-4.15c-1.77-1.77-3.15-3.87-4.15-6.3-1-2.43-1.5-5.09-1.5-7.99s.5-5.56,1.5-7.99c1-2.43,2.39-4.53,4.15-6.3,1.77-1.77,3.86-3.15,6.27-4.15,2.41-1,5.03-1.5,7.85-1.5s5.44,.5,7.85,1.5c2.41,1,4.5,2.39,6.27,4.15,1.77,1.77,3.15,3.87,4.15,6.3,1,2.43,1.5,5.09,1.5,7.99Zm-4.07,.03c0-2.21-.36-4.32-1.07-6.31-.72-2-1.75-3.75-3.11-5.27-1.36-1.52-3.01-2.72-4.96-3.61-1.95-.89-4.14-1.34-6.57-1.34s-4.62,.45-6.57,1.34c-1.95,.89-3.6,2.1-4.96,3.61-1.36,1.52-2.39,3.27-3.11,5.27-.72,2-1.07,4.1-1.07,6.31s.36,4.32,1.07,6.31c.71,2,1.75,3.75,3.11,5.24,1.36,1.5,3.01,2.69,4.96,3.58,1.95,.89,4.14,1.34,6.57,1.34s4.62-.45,6.57-1.34c1.95-.89,3.6-2.09,4.96-3.58,1.36-1.5,2.39-3.25,3.11-5.24,.71-2,1.07-4.1,1.07-6.31Z"/>
    <path class="cls-1" d="M287.4,.96h12.6c2.36,0,4.72,.39,7.1,1.18,2.38,.79,4.52,1.98,6.43,3.56,1.91,1.59,3.46,3.57,4.64,5.95,1.18,2.38,1.77,5.14,1.77,8.28s-.59,5.95-1.77,8.31c-1.18,2.36-2.73,4.33-4.64,5.92-1.91,1.59-4.06,2.78-6.43,3.56-2.38,.79-4.74,1.18-7.1,1.18h-12.6V.96Zm3.86,34.52h7.67c2.86,0,5.35-.45,7.48-1.34,2.13-.89,3.89-2.06,5.28-3.51s2.44-3.1,3.14-4.96c.7-1.86,1.04-3.77,1.04-5.73s-.35-3.88-1.04-5.74c-.7-1.86-1.74-3.51-3.14-4.96s-3.15-2.62-5.28-3.51c-2.13-.89-4.62-1.34-7.48-1.34h-7.67v31.09Z"/>
    <path class="cls-1" d="M350.11,7.08c-.82-1.14-1.88-2.06-3.16-2.76s-2.84-1.05-4.66-1.05c-.93,0-1.88,.14-2.84,.43-.96,.29-1.84,.72-2.63,1.31-.79,.59-1.42,1.33-1.9,2.22-.48,.89-.72,1.95-.72,3.16s.23,2.22,.69,3c.46,.79,1.08,1.46,1.84,2.01,.77,.55,1.64,1.01,2.62,1.37,.98,.36,2,.72,3.07,1.07,1.32,.43,2.65,.89,3.98,1.39,1.34,.5,2.54,1.15,3.61,1.96,1.07,.8,1.94,1.82,2.62,3.06,.68,1.23,1.02,2.8,1.02,4.69s-.36,3.53-1.08,4.9c-.72,1.38-1.66,2.51-2.81,3.4-1.15,.89-2.47,1.55-3.96,1.98-1.48,.43-2.97,.64-4.48,.64-1.14,0-2.29-.12-3.43-.35-1.14-.23-2.23-.58-3.27-1.04-1.04-.46-2-1.05-2.89-1.77-.89-.71-1.68-1.54-2.36-2.47l3.32-2.47c.82,1.36,1.97,2.49,3.46,3.4s3.22,1.37,5.23,1.37c.96,0,1.95-.15,2.95-.46,1-.3,1.9-.77,2.71-1.39,.8-.62,1.46-1.39,1.98-2.3,.52-.91,.78-1.97,.78-3.19,0-1.32-.26-2.42-.78-3.3-.52-.88-1.21-1.61-2.06-2.2-.86-.59-1.84-1.08-2.95-1.47-1.11-.39-2.27-.79-3.48-1.18-1.25-.39-2.48-.84-3.7-1.34-1.21-.5-2.3-1.15-3.27-1.96-.96-.8-1.74-1.8-2.33-2.98s-.88-2.63-.88-4.34c0-1.82,.37-3.39,1.1-4.72,.73-1.32,1.69-2.41,2.87-3.27,1.18-.86,2.48-1.48,3.91-1.88,1.43-.39,2.84-.59,4.23-.59,2.57,0,4.77,.46,6.59,1.37,1.82,.91,3.2,1.99,4.13,3.24l-3.06,2.47Z"/>
  </g>
  <circle class="cls-2" cx="255.89" cy="19.89" r="16.8"/>
</svg>